{"title":"BBC Legends Dennis Wilson The Real Beach Boy","uid":5411057,"size":782064200,"categoryP":"video","categoryS":"music_videos","magnet":"?xt=urn:btih:8f8d13232242fb24511bbb05c8dee89cd2a2f297&amp;dn=BBC+Legends+Dennis+Wilson+The+Real+Beach+Boy&amp;tr=udp%3A%2F%2Ftracker.openbittorrent.com%3A80&amp;tr=udp%3A%2F%2Fopen.demonii.com%3A1337&amp;tr=udp%3A%2F%2Ftracker.coppersurfer.tk%3A6969&amp;tr=udp%3A%2F%2Fexodus.desync.com%3A6969","seeders":0,"leechers":1,"uploader":null,"files":4,"time":1267756427,"description":"BBC.Legends.Dennis.Wilson.The.Real.Beach.Boy.iPlayer.Xvid.AC3.avi\n\n_______________________________________________________________________________\n                                          \n\n___ General Information : _____________________________________________________\n\nDennis Wilson was the drummer in the Beach Boys. And he was the real Beach Boy. \nIn a band of geeks who sang about surfing, cars and girls, Dennis was the only \none who surfed, the one who drove hot rod cars in competition and the one who \ngot all the girls.  He was married five times, shared a house with Charles \nManson (with whom he wrote songs, including one recorded by the Beach Boys) but \ndied, ironically by drowning, at the age of 39. He was also the first Beach Boy \nto release a solo album, the stunning Pacific Ocean Blue, which after years of \nbeing out of print and fetching hundreds on Ebay, was re-released in 2008 to \nwidespread acclaim, being voted No 1 Reissue of the Year by Mojo and Uncut \nmagazines.   This documentary tells the story of Dennis's life and music, with \nunseen archive footage and original interviews with Beach Boys Al Jardine and \nDavid Marks, his sons Michael and Carl and many friends and fellow musicians. \nThese include Taylor Hawkins, drummer with the Foo Fighters who provided a vocal \nfor the lost track on Pacific Ocean Blue, Holy Man, for which Dennis never laid \ndown a vocal when he recorded the song in 1977.\n\n\n___ Technical Specs : _________________________________________________________\n\nGeneral\nComplete name \nBBC.Legends.Dennis.Wilson.The.Real.Beach.Boy.iPlayer.Xvid.AC3.avi\n\nFormat                           : AVI\nFormat/Info                      : Audio Video Interleave\nFile size                        : 746 MiB\nDuration                         : 59mn 16s\nOverall bit rate                 : 1 759 Kbps\nWriting application              : Lavf52.31.1\n\nVideo\nFormat                           : xvid\nCodec ID                         : xvid\nDuration                         : 59mn 16s\nBit rate                         : 1 588 Kbps\nWidth                            : 720 pixels\nHeight                           : 416 pixels\nDisplay aspect ratio             : 16:9\nFrame rate                       : 25.000 fps\nResolution                       : 24 bits\nBits/(Pixel*Frame)               : 0.212\nStream size                      : 673 MiB (90%)\n\nAudio\nID                               : 1\nFormat                           : AC-3\nFormat/Info                      : Audio Coding 3\nCodec ID                         : 2000\nDuration                         : 59mn 15s\nBit rate mode                    : Constant\nBit rate                         : 160 Kbps\nChannel(s)                       : 2 channels\nChannel positions                : L R\nSampling rate                    : 44.1 KHz\nResolution                       : 16 bits\nStream size                      : 67.8 MiB (9%)\nAlignment                        : Aligned on interleaves\nInterleave, duration             : 35 ms (0.87 video frame)\n\n\n__ Post Information : ________________________________________________________\n\nPosted by...........: Obelisk\nPosted to...........: alt.binaries.documentaries\n                      alt.binaries.british.documentaries\nPosted on...........: 4 March 2010\nCompression Format..: RAR\nFile Validation.....: PAR2\nFills Policy........: 10% PAR files provided\n\n\n_______________________________________________________________________________\n                                          \n       ___  _        _ _     _                              _      \n      / _ | |__ ___| (_)___| |__   _ __ _ _ ___ ______ _ _| |_ ___\n     | (_) | '_ | -_) | (_-","torrent":{"xt":"urn:btih:8f8d13232242fb24511bbb05c8dee89cd2a2f297","amp;dn":"BBC+Legends+Dennis+Wilson+The+Real+Beach+Boy","amp;tr":["udp%3A%2F%2Ftracker.openbittorrent.com%3A80","udp%3A%2F%2Fopen.demonii.com%3A1337","udp%3A%2F%2Ftracker.coppersurfer.tk%3A6969","udp%3A%2F%2Fexodus.desync.com%3A6969"],"infoHash":"8f8d13232242fb24511bbb05c8dee89cd2a2f297","infoHashBuffer":{"type":"Buffer","data":[143,141,19,35,34,66,251,36,81,27,187,5,200,222,232,156,210,162,242,151]},"announce":[],"urlList":[]}}